<svg xmlns="http://www.w3.org/2000/svg" viewBox="0 0 48 48"><rect width="48" height="48" rx="12" fill="#181b22"></rect><path d="M0 12A12 12 0 0 1 12 0h24a12 12 0 0 1 12 12v19.5H0z" fill="#222734"></path><rect x="9" y="11" width="6" height="12" rx="3" fill="#f5a524"></rect><rect x="17.5" y="7" width="6" height="20" rx="3" fill="#2cc4a4"></rect><rect x="26" y="9.5" width="6" height="15" rx="3" fill="#9b7df2"></rect><rect x="34.5" y="6" width="6" height="22" rx="3" fill="#f7844b"></rect><path d="M11 44v1.5M17 44v1.5M23 44v1.5M29 44v1.5M35 44v1.5" stroke="#384052" stroke-width="1.2" stroke-linecap="round"></path><rect x="8" y="35" width="32" height="5" rx="2.5" fill="#2e3545"></rect><rect x="8" y="35" width="21" height="5" rx="2.5" fill="#43d0f9"></rect><circle cx="29" cy="37.5" r="3.7" fill="#181b22"></circle><circle cx="29" cy="37.5" r="2.5" fill="#ffffff"></circle><rect x="37" y="32.5" width="2.4" height="10" rx="1.2" fill="#ffffff"></rect><rect x=".5" y=".5" width="47" height="47" rx="11.5" fill="none" stroke="#ffffff" stroke-opacity=".07"></rect></svg>